<mxfile host="app.diagrams.net" modified="2023-09-09T07:32:34.560Z" agent="Mozilla/5.0 (Macintosh; Intel Mac OS X 10_15_7) AppleWebKit/537.36 (KHTML, like Gecko) Chrome/116.0.0.0 Safari/537.36" version="21.7.4" etag="kzrqBV2mQy28TKF-8c2p" type="github">
  <diagram name="第 1 页" id="n2_gBhxuS5OwTWFIAYVj">
    <mxGraphModel>
      <root>
        <mxCell id="0" />
        <mxCell id="1" parent="0" />
      </root>
    </mxGraphModel>
  </diagram>
</mxfile>
